# xmcd
#
# Track frame offsets:
#	150
#	23085
#	44783
#	62710
#	80810
#	102748
#	127493
#	145108
#	167920
#	185525
#
# Disc length: 2777 seconds
#
# Revision: 1
# Processed by: cddbd v1.5.1PL0 Copyright (c) Steve Scherf et al.
# Submitted via: dBpowerAMP V4.0
#
DISCID=9d0ad70a
DTITLE=王傑 - 流浪的心
DYEAR=1990
DGENRE=Pop
TTITLE0=冰太陽
TTITLE1=忘記我
TTITLE2=天意
TTITLE3=想見不敢見
TTITLE4=相愛的
TTITLE5=失敗者
TTITLE6=流浪的心
TTITLE7=孤獨觀眾
TTITLE8=留下我一個
TTITLE9=講不出的痛苦
EXTD=
EXTT0=
EXTT1=
EXTT2=
EXTT3=
EXTT4=
EXTT5=
EXTT6=
EXTT7=
EXTT8=
EXTT9=
PLAYORDER=
